<mxfile host="app.diagrams.net" modified="2020-08-05T04:54:37.966Z" agent="5.0 (Windows NT 10.0; Win64; x64) AppleWebKit/537.36 (KHTML, like Gecko) Chrome/84.0.4147.105 Safari/537.36" etag="kJ6iNzV6_020AvIDkV1Z" version="13.5.9" type="github">
  <diagram id="-z7VyiMYHctXUQYD8EfE" name="Page-1">
    <mxGraphModel dx="868" dy="482" grid="1" gridSize="10" guides="1" tooltips="1" connect="1" arrows="1" fold="1" page="1" pageScale="1" pageWidth="850" pageHeight="1100" math="0" shadow="0">
      <root>
        <mxCell id="0" />
        <mxCell id="1" parent="0" />
        <mxCell id="cELz50F9b-7-b9CXxBkc-1" value="" style="rounded=1;whiteSpace=wrap;html=1;" vertex="1" parent="1">
          <mxGeometry x="70" y="20" width="725" height="420" as="geometry" />
        </mxCell>
        <mxCell id="cELz50F9b-7-b9CXxBkc-2" value="World wide" style="text;html=1;strokeColor=none;fillColor=none;align=center;verticalAlign=middle;whiteSpace=wrap;rounded=0;" vertex="1" parent="1">
          <mxGeometry x="540" y="60" width="70" height="10" as="geometry" />
        </mxCell>
        <mxCell id="cELz50F9b-7-b9CXxBkc-3" value="&lt;font style=&quot;font-size: 13px&quot;&gt;Covid-19 tracker&lt;/font&gt;" style="text;html=1;strokeColor=none;fillColor=none;align=center;verticalAlign=middle;whiteSpace=wrap;rounded=0;" vertex="1" parent="1">
          <mxGeometry x="110" y="60" width="100" height="10" as="geometry" />
        </mxCell>
        <mxCell id="cELz50F9b-7-b9CXxBkc-4" value="" style="rounded=0;whiteSpace=wrap;html=1;" vertex="1" parent="1">
          <mxGeometry x="520" y="50" width="120" height="30" as="geometry" />
        </mxCell>
        <mxCell id="cELz50F9b-7-b9CXxBkc-6" value="Text" style="text;html=1;strokeColor=none;fillColor=none;align=center;verticalAlign=middle;whiteSpace=wrap;rounded=0;" vertex="1" parent="1">
          <mxGeometry x="130" y="140" width="40" height="20" as="geometry" />
        </mxCell>
        <mxCell id="cELz50F9b-7-b9CXxBkc-7" value="worldwide" style="text;html=1;strokeColor=none;fillColor=none;align=center;verticalAlign=middle;whiteSpace=wrap;rounded=0;" vertex="1" parent="1">
          <mxGeometry x="550" y="55" width="40" height="20" as="geometry" />
        </mxCell>
        <mxCell id="cELz50F9b-7-b9CXxBkc-9" value="&lt;div&gt;&lt;span&gt;+2000&lt;/span&gt;&lt;/div&gt;&lt;div&gt;&lt;span&gt;1.2m&lt;/span&gt;&lt;/div&gt;" style="rounded=0;whiteSpace=wrap;html=1;align=left;" vertex="1" parent="1">
          <mxGeometry x="110" y="130" width="120" height="60" as="geometry" />
        </mxCell>
        <mxCell id="cELz50F9b-7-b9CXxBkc-10" value="Text" style="text;html=1;strokeColor=none;fillColor=none;align=center;verticalAlign=middle;whiteSpace=wrap;rounded=0;" vertex="1" parent="1">
          <mxGeometry x="400" y="240" width="40" height="20" as="geometry" />
        </mxCell>
        <mxCell id="cELz50F9b-7-b9CXxBkc-11" value="&lt;font style=&quot;font-size: 13px&quot;&gt;&lt;b&gt;corona cases&lt;/b&gt;&lt;/font&gt;" style="text;html=1;strokeColor=none;fillColor=none;align=left;verticalAlign=middle;whiteSpace=wrap;rounded=0;" vertex="1" parent="1">
          <mxGeometry x="120" y="130" width="90" height="20" as="geometry" />
        </mxCell>
        <mxCell id="cELz50F9b-7-b9CXxBkc-12" value="" style="rounded=1;whiteSpace=wrap;html=1;" vertex="1" parent="1">
          <mxGeometry x="330" y="130" width="120" height="60" as="geometry" />
        </mxCell>
        <mxCell id="cELz50F9b-7-b9CXxBkc-13" value="" style="rounded=1;whiteSpace=wrap;html=1;" vertex="1" parent="1">
          <mxGeometry x="520" y="130" width="120" height="60" as="geometry" />
        </mxCell>
        <mxCell id="cELz50F9b-7-b9CXxBkc-14" value="" style="rounded=1;whiteSpace=wrap;html=1;" vertex="1" parent="1">
          <mxGeometry x="130" y="230" width="520" height="180" as="geometry" />
        </mxCell>
        <mxCell id="cELz50F9b-7-b9CXxBkc-15" value="Map" style="text;html=1;strokeColor=none;fillColor=none;align=center;verticalAlign=middle;whiteSpace=wrap;rounded=0;" vertex="1" parent="1">
          <mxGeometry x="160" y="260" width="420" height="110" as="geometry" />
        </mxCell>
        <mxCell id="cELz50F9b-7-b9CXxBkc-17" value="Recovered" style="text;html=1;strokeColor=none;fillColor=none;align=center;verticalAlign=middle;whiteSpace=wrap;rounded=0;" vertex="1" parent="1">
          <mxGeometry x="350" y="140" width="70" height="20" as="geometry" />
        </mxCell>
        <mxCell id="cELz50F9b-7-b9CXxBkc-20" value="Deaths" style="text;html=1;strokeColor=none;fillColor=none;align=center;verticalAlign=middle;whiteSpace=wrap;rounded=0;" vertex="1" parent="1">
          <mxGeometry x="530" y="140" width="90" height="20" as="geometry" />
        </mxCell>
        <mxCell id="cELz50F9b-7-b9CXxBkc-22" value="" style="whiteSpace=wrap;html=1;aspect=fixed;" vertex="1" parent="1">
          <mxGeometry x="650" y="80" width="140" height="140" as="geometry" />
        </mxCell>
        <mxCell id="cELz50F9b-7-b9CXxBkc-23" value="Text" style="text;html=1;strokeColor=none;fillColor=none;align=center;verticalAlign=middle;whiteSpace=wrap;rounded=0;" vertex="1" parent="1">
          <mxGeometry x="410" y="210" width="40" height="20" as="geometry" />
        </mxCell>
        <mxCell id="cELz50F9b-7-b9CXxBkc-24" value="Table" style="text;html=1;strokeColor=none;fillColor=none;align=center;verticalAlign=middle;whiteSpace=wrap;rounded=0;" vertex="1" parent="1">
          <mxGeometry x="690" y="120" width="40" height="20" as="geometry" />
        </mxCell>
      </root>
    </mxGraphModel>
  </diagram>
</mxfile>
